# Blender v2.82 (sub 7) OBJ File: 'untitled.blend'
# www.blender.org
mtllib cube.mtl
o Cube_Cube.001
v -1.000000 2.772675 1.000000
v -1.000000 4.772676 1.000000
v -1.000000 2.772675 -1.000000
v -1.000000 4.772676 -1.000000
v 1.000000 2.772675 1.000000
v 1.000000 4.772676 1.000000
v 1.000000 2.772675 -1.000000
v 1.000000 4.772676 -1.000000
v -1.000000 5.874368 1.000000
v -1.000000 5.874368 -1.000000
v 1.000000 5.874368 -1.000000
v 1.000000 5.874368 1.000000
v 2.215183 4.772676 -1.000000
v 2.215183 2.772675 -1.000000
v 2.215183 2.772675 1.000000
v 2.215183 4.772676 1.000000
v -1.000000 2.772675 2.342887
v -1.000000 4.772676 2.342887
v 1.000000 4.772676 2.342887
v 1.000000 2.772675 2.342887
v -1.000000 6.706901 1.000000
v -1.000000 6.706901 -1.000000
v 1.000000 6.706901 -1.000000
v 1.000000 6.706901 1.000000
v -0.601821 3.170855 2.342887
v -0.601821 4.374496 2.342887
v 0.601821 4.374496 2.342887
v 0.601821 3.170855 2.342887
v -0.601821 3.170855 3.016602
v -0.601821 4.374496 3.016602
v 0.601821 4.374496 3.016602
v 0.601821 3.170855 3.016602
v 2.215183 4.255320 -0.482645
v 2.215183 3.290031 -0.482645
v 2.215183 3.290031 0.482645
v 2.215183 4.255320 0.482645
v 2.784234 4.255320 -0.482645
v 2.784234 3.290031 -0.482645
v 2.784234 3.290031 0.482645
v 2.784234 4.255320 0.482645
v -1.000000 6.514099 1.000000
v -1.000000 6.514099 -1.000000
v 1.000000 6.514099 -1.000000
v 1.000000 6.514099 1.000000
v -2.749799 3.413501 -1.000000
v -2.749799 3.413501 1.000000
v -2.749799 4.131849 1.000000
v -2.749799 4.131849 -1.000000
v -1.000000 4.131849 -2.616104
v -1.000000 3.413501 -2.616104
v 1.000000 3.413501 -2.616104
v 1.000000 4.131849 -2.616104
v -1.725404 6.617137 1.725404
v -1.725404 6.617137 -1.725404
v 1.725404 6.617137 -1.725404
v 1.725404 6.617137 1.725404
v -1.725404 7.044151 1.725404
v -1.725404 7.044151 -1.725404
v 1.725404 7.044151 -1.725404
v 1.725404 7.044151 1.725404
v -0.688107 1.180633 -0.688107
v -0.688107 1.180633 0.688107
v 0.688107 1.180633 -0.688107
v 0.688107 1.180633 0.688107
v -1.000000 6.842568 1.000000
v -1.000000 6.842568 -1.000000
v 1.000000 6.842568 -1.000000
v 1.000000 6.842568 1.000000
v -0.495482 6.842568 0.495482
v -0.495482 6.842568 -0.495482
v 0.495482 6.842568 -0.495482
v 0.495482 6.842568 0.495482
v -0.495482 9.265011 0.495482
v -0.495482 9.265011 -0.495482
v 0.495482 9.265011 -0.495482
v 0.495482 9.265011 0.495482
v -0.189065 9.371189 0.189065
v -0.189065 9.371189 -0.189065
v 0.189065 9.371189 -0.189065
v 0.189065 9.371189 0.189065
v -0.189065 9.929574 0.189065
v -0.189065 9.929574 -0.189065
v 0.189065 9.929574 -0.189065
v 0.189065 9.929574 0.189065
v -1.000000 3.772675 1.000000
v 1.000000 3.772675 1.000000
v -1.000000 3.772675 -1.000000
v 1.000000 3.772675 -1.000000
vt 0.284615 0.589651
vt 0.353940 0.731860
vt 0.284615 0.732876
vt 0.695376 0.198063
vt 0.631843 0.100710
vt 0.695376 0.054810
vt 0.740864 0.875182
vt 0.693105 0.731912
vt 0.740864 0.731957
vt 0.416025 0.588613
vt 0.363233 0.445371
vt 0.416025 0.445371
vt 0.713689 0.588670
vt 0.650898 0.467747
vt 0.713689 0.445405
vt 0.574871 0.588670
vt 0.531565 0.445405
vt 0.574871 0.445405
vt 0.531565 0.588670
vt 0.498839 0.445406
vt 0.650898 0.588670
vt 0.607594 0.445405
vt 0.650898 0.445405
vt 0.420236 0.445445
vt 0.463542 0.588709
vt 0.420236 0.588709
vt 0.555816 0.054810
vt 0.599120 0.198075
vt 0.555816 0.198075
vt 0.363233 0.445371
vt 0.304952 0.482430
vt 0.284615 0.445371
vt 0.401712 0.876399
vt 0.353940 0.733157
vt 0.401712 0.733157
vt 0.468008 0.876140
vt 0.420236 0.732887
vt 0.468008 0.732887
vt 0.695376 0.054904
vt 0.743123 0.197992
vt 0.695376 0.198086
vt 0.498839 0.302141
vt 0.514491 0.416883
vt 0.498839 0.445405
vt 0.284615 0.732876
vt 0.337376 0.876171
vt 0.284615 0.876068
vt 0.498839 0.731972
vt 0.551616 0.875152
vt 0.498839 0.875202
vt 0.363218 0.302067
vt 0.416009 0.445320
vt 0.363218 0.445320
vt 0.392218 0.107621
vt 0.420236 0.301940
vt 0.392218 0.250850
vt 0.607594 0.588670
vt 0.574871 0.445405
vt 0.463542 0.445445
vt 0.496268 0.588709
vt 0.599120 0.054810
vt 0.631843 0.198075
vt 0.647075 0.961375
vt 0.620597 0.875201
vt 0.647075 0.875176
vt 0.561804 0.416883
vt 0.577456 0.445405
vt 0.561804 0.330664
vt 0.577456 0.302141
vt 0.514491 0.330664
vt 0.657201 0.198075
vt 0.609887 0.284294
vt 0.609887 0.198075
vt 0.567627 0.875176
vt 0.594112 0.961388
vt 0.567627 0.961388
vt 0.647075 0.875176
vt 0.673545 0.961404
vt 0.647075 0.961352
vt 0.620597 0.961382
vt 0.594112 0.875176
vt 0.620597 0.875176
vt 0.732171 0.270554
vt 0.709801 0.201414
vt 0.732171 0.201414
vt 0.363233 0.588635
vt 0.342896 0.482430
vt 0.304952 0.551576
vt 0.284615 0.588635
vt 0.342896 0.551576
vt 0.699948 0.731912
vt 0.737892 0.662766
vt 0.737892 0.731912
vt 0.521198 0.944307
vt 0.498839 0.875246
vt 0.521198 0.875202
vt 0.737840 0.944329
vt 0.715475 0.875182
vt 0.737840 0.875203
vt 0.693105 0.875182
vt 0.715475 0.944317
vt 0.693105 0.944317
vt 0.551616 0.731922
vt 0.564528 0.875186
vt 0.551616 0.875186
vt 0.313615 0.250925
vt 0.284615 0.054938
vt 0.313615 0.107695
vt 0.448617 0.250199
vt 0.420236 0.054810
vt 0.448617 0.107006
vt 0.527196 0.107161
vt 0.555816 0.302141
vt 0.527196 0.250353
vt 0.748758 0.413818
vt 0.776993 0.270554
vt 0.776993 0.413818
vt 0.577456 0.300800
vt 0.647009 0.445405
vt 0.577456 0.443982
vt 0.636415 0.731912
vt 0.567627 0.634566
vt 0.636415 0.588670
vt 0.567627 0.731922
vt 0.498839 0.634570
vt 0.567627 0.588670
vt 0.776993 0.413818
vt 0.805229 0.270554
vt 0.805229 0.413818
vt 0.418292 0.731828
vt 0.353940 0.589965
vt 0.418292 0.588635
vt 0.420236 0.588709
vt 0.484344 0.732887
vt 0.420236 0.731939
vt 0.699948 0.731912
vt 0.636415 0.634566
vt 0.699948 0.588670
vt 0.418496 0.980346
vt 0.401712 0.733157
vt 0.418496 0.733157
vt 0.752646 0.445405
vt 0.769432 0.692594
vt 0.752646 0.692594
vt 0.468008 0.732887
vt 0.484792 0.980076
vt 0.468008 0.980076
vt 0.786217 0.692594
vt 0.769432 0.445405
vt 0.786217 0.445405
vt 0.555816 0.055077
vt 0.420236 0.301875
vt 0.420236 0.054810
vt 0.284615 0.302067
vt 0.609887 0.296712
vt 0.555816 0.198075
vt 0.609887 0.198181
vt 0.709801 0.444065
vt 0.647009 0.323142
vt 0.709801 0.300800
vt 0.630366 0.875176
vt 0.567627 0.754254
vt 0.630366 0.731912
vt 0.630366 0.731912
vt 0.693105 0.852835
vt 0.284615 0.302142
vt 0.304443 0.409222
vt 0.284615 0.445371
vt 0.350287 0.876140
vt 0.337376 0.732876
vt 0.350287 0.732876
vt 0.497256 0.731973
vt 0.484344 0.588709
vt 0.497256 0.588709
vt 0.497703 0.876151
vt 0.484792 0.732887
vt 0.497703 0.732887
vt 0.752646 0.445405
vt 0.713689 0.618916
vt 0.713689 0.445405
vt 0.343389 0.409185
vt 0.363218 0.445297
vt 0.363218 0.302067
vt 0.304443 0.338254
vt 0.343389 0.338217
vt 0.696147 0.284257
vt 0.684203 0.235412
vt 0.696147 0.213289
vt 0.779821 0.731912
vt 0.740864 0.905410
vt 0.740864 0.731912
vt 0.709801 0.444065
vt 0.748758 0.270554
vt 0.748758 0.444065
vt 0.743123 0.228308
vt 0.782080 0.054810
vt 0.782080 0.228308
vt 0.729678 0.622771
vt 0.714813 0.662766
vt 0.714813 0.622771
vt 0.657201 0.213326
vt 0.669342 0.262506
vt 0.657201 0.284294
vt 0.684203 0.262492
vt 0.669342 0.235426
vt 0.688407 0.875190
vt 0.673545 0.902255
vt 0.673545 0.875176
vt 0.729678 0.662764
vt 0.744543 0.622771
vt 0.744543 0.662764
vt 0.699948 0.662766
vt 0.714813 0.622771
vt 0.714813 0.662766
vt 0.732171 0.270554
vt 0.747036 0.230562
vt 0.747036 0.270554
vt 0.420236 0.302215
vt 0.498839 0.445371
vt 0.420236 0.445445
vt 0.353940 0.588635
vt 0.631843 0.152163
vt 0.693105 0.875137
vt 0.363233 0.588613
vt 0.650898 0.566328
vt 0.498839 0.588670
vt 0.353940 0.876399
vt 0.420236 0.876140
vt 0.743123 0.054810
vt 0.337376 0.732979
vt 0.551616 0.731922
vt 0.416009 0.302067
vt 0.574871 0.588670
vt 0.496268 0.445445
vt 0.631843 0.054810
vt 0.620597 0.961400
vt 0.657201 0.284294
vt 0.594112 0.875176
vt 0.673545 0.875228
vt 0.594112 0.961382
vt 0.709801 0.270554
vt 0.699948 0.662766
vt 0.498839 0.944351
vt 0.715475 0.944308
vt 0.564528 0.731922
vt 0.748758 0.270554
vt 0.647009 0.302224
vt 0.567627 0.686015
vt 0.498839 0.686022
vt 0.776993 0.270554
vt 0.353940 0.733157
vt 0.484344 0.589657
vt 0.636415 0.686015
vt 0.401712 0.980346
vt 0.484792 0.732887
vt 0.769432 0.692594
vt 0.555816 0.296606
vt 0.647009 0.421723
vt 0.567627 0.852835
vt 0.693105 0.754254
vt 0.337376 0.876140
vt 0.484344 0.731973
vt 0.484792 0.876151
vt 0.752646 0.618916
vt 0.779821 0.905410
vt 0.709801 0.270554
vt 0.743123 0.054810
vt 0.729678 0.662766
vt 0.688407 0.902269
vt 0.729678 0.622771
vt 0.699948 0.622771
vt 0.732171 0.230562
vt 0.498839 0.302141
vn -0.3439 0.9390 0.0000
vn 1.0000 0.0000 0.0000
vn 0.0000 1.0000 0.0000
vn -1.0000 0.0000 0.0000
vn 0.0000 -0.1923 -0.9813
vn 0.0000 0.0000 1.0000
vn 0.0000 0.0000 -1.0000
vn 0.0000 -1.0000 0.0000
vn 0.0000 0.8074 0.5900
vn 0.0000 0.8074 -0.5900
vn 0.0000 -0.9924 0.1228
vn 0.0000 -0.9924 -0.1228
vn -0.3439 -0.9390 0.0000
vn 0.0000 -0.9296 -0.3686
vn 0.0000 0.9296 -0.3686
vn -0.1228 -0.9924 0.0000
vn 0.1228 -0.9924 0.0000
vn -0.5900 0.8074 0.0000
vn 0.5900 0.8074 0.0000
vn -0.9813 -0.1923 0.0000
vn 0.9813 -0.1923 0.0000
vn 0.0000 -0.1923 0.9813
vn 0.0000 0.9449 0.3274
vn 0.0000 0.9449 -0.3274
vn 0.3274 0.9449 0.0000
vn -0.3274 0.9449 0.0000
usemtl Material.001
s off
f 4/1/1 47/2/1 2/3/1
f 7/4/2 52/5/2 8/6/2
f 6/7/3 13/8/3 8/9/3
f 1/10/4 18/11/4 2/12/4
f 7/13/5 61/14/5 3/15/5
f 8/16/2 12/17/2 6/18/2
f 11/19/2 24/20/2 12/17/2
f 2/21/4 10/22/4 4/23/4
f 6/24/6 9/25/6 2/26/6
f 4/27/7 11/28/7 8/29/7
f 15/30/2 36/31/2 16/32/2
f 8/33/7 14/34/7 7/35/7
f 5/36/6 16/37/6 6/38/6
f 7/39/8 15/40/8 5/41/8
f 20/42/6 25/43/6 17/44/6
f 5/45/8 17/46/8 1/47/8
f 2/48/3 19/49/3 6/50/3
f 6/51/2 20/52/2 5/53/2
f 43/54/9 58/55/9 42/56/9
f 9/57/4 22/58/4 10/22/4
f 12/59/6 21/60/6 9/25/6
f 10/61/7 23/62/7 11/28/7
f 26/63/3 31/64/3 27/65/3
f 17/44/6 26/66/6 18/67/6
f 18/67/6 27/68/6 19/69/6
f 19/69/6 28/70/6 20/42/6
f 31/71/6 29/72/6 32/73/6
f 27/74/2 32/75/2 28/76/2
f 28/77/8 29/78/8 25/79/8
f 25/80/4 30/81/4 26/82/4
f 35/83/6 40/84/6 36/85/6
f 14/86/2 35/87/2 15/30/2
f 16/32/2 33/88/2 13/89/2
f 13/89/2 34/90/2 14/86/2
f 37/91/2 39/92/2 38/93/2
f 34/94/8 39/95/8 35/96/8
f 36/97/3 37/98/3 33/99/3
f 33/100/7 38/101/7 34/102/7
f 44/103/6 65/104/6 41/105/6
f 41/106/10 60/107/10 44/108/10
f 22/109/11 55/110/11 23/111/11
f 24/112/12 53/113/12 21/114/12
f 47/115/4 45/116/4 46/117/4
f 1/118/13 45/119/13 3/120/13
f 3/121/7 48/122/7 4/123/7
f 2/124/6 46/125/6 1/126/6
f 49/127/7 51/128/7 50/129/7
f 3/130/14 51/131/14 7/132/14
f 8/133/15 49/134/15 4/135/15
f 4/136/4 50/137/4 3/138/4
f 53/139/4 58/140/4 54/141/4
f 56/142/6 57/143/6 53/144/6
f 54/145/7 59/146/7 55/147/7
f 55/148/2 60/149/2 56/150/2
f 23/111/16 56/151/16 24/112/16
f 21/114/17 54/152/17 22/109/17
f 44/108/18 59/153/18 43/54/18
f 42/56/19 57/154/19 41/106/19
f 63/155/8 62/156/8 61/157/8
f 3/158/20 62/159/20 1/160/20
f 5/161/21 63/162/21 7/163/21
f 1/164/22 64/165/22 5/161/22
f 66/166/3 71/167/3 67/168/3
f 42/169/7 67/170/7 43/171/7
f 43/172/2 68/173/2 44/174/2
f 41/175/4 66/176/4 42/177/4
f 71/178/2 76/179/2 72/180/2
f 67/168/3 72/181/3 68/182/3
f 65/183/3 70/184/3 66/166/3
f 68/182/3 69/185/3 65/183/3
f 76/186/23 77/187/23 73/188/23
f 69/189/4 74/190/4 70/191/4
f 72/192/6 73/193/6 69/194/6
f 70/195/7 75/196/7 71/197/7
f 79/198/2 84/199/2 80/200/2
f 74/201/24 79/202/24 75/203/24
f 75/203/25 80/204/25 76/186/25
f 73/188/26 78/205/26 74/201/26
f 82/206/3 84/207/3 83/208/3
f 77/209/4 82/210/4 78/211/4
f 80/212/6 81/213/6 77/214/6
f 78/215/7 83/216/7 79/217/7
f 86/218/3 87/219/3 85/220/3
f 4/1/1 48/221/1 47/2/1
f 7/4/2 51/222/2 52/5/2
f 6/7/3 16/223/3 13/8/3
f 1/10/4 17/224/4 18/11/4
f 7/13/5 63/225/5 61/14/5
f 8/16/2 11/19/2 12/17/2
f 11/19/2 23/226/2 24/20/2
f 2/21/4 9/57/4 10/22/4
f 6/24/6 12/59/6 9/25/6
f 4/27/7 10/61/7 11/28/7
f 15/30/2 35/87/2 36/31/2
f 8/33/7 13/227/7 14/34/7
f 5/36/6 15/228/6 16/37/6
f 7/39/8 14/229/8 15/40/8
f 20/42/6 28/70/6 25/43/6
f 5/45/8 20/230/8 17/46/8
f 2/48/3 18/231/3 19/49/3
f 6/51/2 19/232/2 20/52/2
f 43/54/9 59/153/9 58/55/9
f 9/57/4 21/233/4 22/58/4
f 12/59/6 24/234/6 21/60/6
f 10/61/7 22/235/7 23/62/7
f 26/63/3 30/236/3 31/64/3
f 17/44/6 25/43/6 26/66/6
f 18/67/6 26/66/6 27/68/6
f 19/69/6 27/68/6 28/70/6
f 31/71/6 30/237/6 29/72/6
f 27/74/2 31/238/2 32/75/2
f 28/77/8 32/239/8 29/78/8
f 25/80/4 29/240/4 30/81/4
f 35/83/6 39/241/6 40/84/6
f 14/86/2 34/90/2 35/87/2
f 16/32/2 36/31/2 33/88/2
f 13/89/2 33/88/2 34/90/2
f 37/91/2 40/242/2 39/92/2
f 34/94/8 38/243/8 39/95/8
f 36/97/3 40/244/3 37/98/3
f 33/100/7 37/98/7 38/101/7
f 44/103/6 68/245/6 65/104/6
f 41/106/10 57/154/10 60/107/10
f 22/109/11 54/152/11 55/110/11
f 24/112/12 56/151/12 53/113/12
f 47/115/4 48/246/4 45/116/4
f 1/118/13 46/247/13 45/119/13
f 3/121/7 45/248/7 48/122/7
f 2/124/6 47/249/6 46/125/6
f 49/127/7 52/250/7 51/128/7
f 3/130/14 50/251/14 51/131/14
f 8/133/15 52/252/15 49/134/15
f 4/136/4 49/253/4 50/137/4
f 53/139/4 57/254/4 58/140/4
f 56/142/6 60/149/6 57/143/6
f 54/145/7 58/255/7 59/146/7
f 55/148/2 59/256/2 60/149/2
f 23/111/16 55/110/16 56/151/16
f 21/114/17 53/113/17 54/152/17
f 44/108/18 60/107/18 59/153/18
f 42/56/19 58/55/19 57/154/19
f 63/155/8 64/257/8 62/156/8
f 3/158/20 61/258/20 62/159/20
f 5/161/21 64/259/21 63/162/21
f 1/164/22 62/260/22 64/165/22
f 66/166/3 70/184/3 71/167/3
f 42/169/7 66/261/7 67/170/7
f 43/172/2 67/262/2 68/173/2
f 41/175/4 65/263/4 66/176/4
f 71/178/2 75/264/2 76/179/2
f 67/168/3 71/167/3 72/181/3
f 65/183/3 69/185/3 70/184/3
f 68/182/3 72/181/3 69/185/3
f 76/186/23 80/204/23 77/187/23
f 69/189/4 73/265/4 74/190/4
f 72/192/6 76/266/6 73/193/6
f 70/195/7 74/267/7 75/196/7
f 79/198/2 83/268/2 84/199/2
f 74/201/24 78/205/24 79/202/24
f 75/203/25 79/202/25 80/204/25
f 73/188/26 77/187/26 78/205/26
f 82/206/3 81/269/3 84/207/3
f 77/209/4 81/270/4 82/210/4
f 80/212/6 84/271/6 81/213/6
f 78/215/7 82/272/7 83/216/7
f 86/218/3 88/273/3 87/219/3
o Plane
v -4.863526 0.000000 4.863526
v 4.863526 0.000000 4.863526
v -4.863526 0.000000 -4.863526
v 4.863526 0.000000 -4.863526
vt 0.000100 0.999900
vt 0.999900 0.000100
vt 0.999900 0.999900
vt 0.000100 0.000100
vn 0.0000 1.0000 0.0000
usemtl Material.002
s off
f 90/274/27 91/275/27 89/276/27
f 90/274/27 92/277/27 91/275/27
